<mxfile host="Electron" agent="Mozilla/5.0 (Windows NT 10.0; Win64; x64) AppleWebKit/537.36 (KHTML, like Gecko) draw.io/24.7.17 Chrome/128.0.6613.36 Electron/32.0.1 Safari/537.36" version="24.7.17">
  <diagram id="C5RBs43oDa-KdzZeNtuy" name="Page-1">
    <mxGraphModel dx="941" dy="644" grid="1" gridSize="10" guides="1" tooltips="1" connect="1" arrows="1" fold="1" page="1" pageScale="1" pageWidth="827" pageHeight="1169" math="0" shadow="0">
      <root>
        <mxCell id="WIyWlLk6GJQsqaUBKTNV-0" />
        <mxCell id="WIyWlLk6GJQsqaUBKTNV-1" parent="WIyWlLk6GJQsqaUBKTNV-0" />
        <mxCell id="tG1hGK9fX6ViWs7RZ0Ur-33" style="edgeStyle=orthogonalEdgeStyle;rounded=0;orthogonalLoop=1;jettySize=auto;html=1;exitX=0.5;exitY=1;exitDx=0;exitDy=0;entryX=0.5;entryY=0;entryDx=0;entryDy=0;" edge="1" parent="WIyWlLk6GJQsqaUBKTNV-1" source="tG1hGK9fX6ViWs7RZ0Ur-5" target="tG1hGK9fX6ViWs7RZ0Ur-24">
          <mxGeometry relative="1" as="geometry" />
        </mxCell>
        <mxCell id="tG1hGK9fX6ViWs7RZ0Ur-5" value="&lt;span style=&quot;font-size: 18px;&quot;&gt;deductions =&amp;nbsp;&lt;/span&gt;&lt;span style=&quot;font-size: 18px; background-color: initial;&quot;&gt;rent + utilites + groceries&lt;/span&gt;" style="rounded=0;whiteSpace=wrap;html=1;" vertex="1" parent="WIyWlLk6GJQsqaUBKTNV-1">
          <mxGeometry x="10" y="210" width="170" height="90" as="geometry" />
        </mxCell>
        <mxCell id="tG1hGK9fX6ViWs7RZ0Ur-28" style="edgeStyle=orthogonalEdgeStyle;rounded=0;orthogonalLoop=1;jettySize=auto;html=1;exitX=1;exitY=0.5;exitDx=0;exitDy=0;entryX=0;entryY=0.5;entryDx=0;entryDy=0;" edge="1" parent="WIyWlLk6GJQsqaUBKTNV-1" source="tG1hGK9fX6ViWs7RZ0Ur-7" target="tG1hGK9fX6ViWs7RZ0Ur-21">
          <mxGeometry relative="1" as="geometry" />
        </mxCell>
        <mxCell id="tG1hGK9fX6ViWs7RZ0Ur-7" value="&lt;font style=&quot;font-size: 18px;&quot;&gt;start&lt;/font&gt;" style="shape=ellipse;html=1;dashed=0;whiteSpace=wrap;perimeter=ellipsePerimeter;" vertex="1" parent="WIyWlLk6GJQsqaUBKTNV-1">
          <mxGeometry x="10" y="30" width="170" height="90" as="geometry" />
        </mxCell>
        <mxCell id="tG1hGK9fX6ViWs7RZ0Ur-8" value="&lt;font style=&quot;font-size: 18px;&quot;&gt;stop&lt;/font&gt;" style="shape=ellipse;html=1;dashed=0;whiteSpace=wrap;perimeter=ellipsePerimeter;" vertex="1" parent="WIyWlLk6GJQsqaUBKTNV-1">
          <mxGeometry x="170" y="520" width="170" height="95" as="geometry" />
        </mxCell>
        <mxCell id="tG1hGK9fX6ViWs7RZ0Ur-30" style="edgeStyle=orthogonalEdgeStyle;rounded=0;orthogonalLoop=1;jettySize=auto;html=1;exitX=0.5;exitY=1;exitDx=0;exitDy=0;entryX=0.5;entryY=0;entryDx=0;entryDy=0;" edge="1" parent="WIyWlLk6GJQsqaUBKTNV-1" source="tG1hGK9fX6ViWs7RZ0Ur-9" target="tG1hGK9fX6ViWs7RZ0Ur-22">
          <mxGeometry relative="1" as="geometry" />
        </mxCell>
        <mxCell id="tG1hGK9fX6ViWs7RZ0Ur-9" value="&lt;span style=&quot;font-size: 18px;&quot;&gt;input&lt;/span&gt;&lt;div&gt;&lt;span style=&quot;font-size: 18px;&quot;&gt;rent&lt;/span&gt;&lt;/div&gt;" style="shape=parallelogram;perimeter=parallelogramPerimeter;whiteSpace=wrap;html=1;fixedSize=1;" vertex="1" parent="WIyWlLk6GJQsqaUBKTNV-1">
          <mxGeometry x="500" y="30" width="175" height="90" as="geometry" />
        </mxCell>
        <mxCell id="tG1hGK9fX6ViWs7RZ0Ur-29" style="edgeStyle=orthogonalEdgeStyle;rounded=0;orthogonalLoop=1;jettySize=auto;html=1;exitX=1;exitY=0.5;exitDx=0;exitDy=0;entryX=0;entryY=0.5;entryDx=0;entryDy=0;" edge="1" parent="WIyWlLk6GJQsqaUBKTNV-1" source="tG1hGK9fX6ViWs7RZ0Ur-21" target="tG1hGK9fX6ViWs7RZ0Ur-9">
          <mxGeometry relative="1" as="geometry" />
        </mxCell>
        <mxCell id="tG1hGK9fX6ViWs7RZ0Ur-21" value="&lt;span style=&quot;font-size: 18px;&quot;&gt;input&lt;/span&gt;&lt;div&gt;&lt;span style=&quot;font-size: 18px;&quot;&gt;monthlyPay&lt;/span&gt;&lt;/div&gt;" style="shape=parallelogram;perimeter=parallelogramPerimeter;whiteSpace=wrap;html=1;fixedSize=1;" vertex="1" parent="WIyWlLk6GJQsqaUBKTNV-1">
          <mxGeometry x="244" y="30" width="170" height="90" as="geometry" />
        </mxCell>
        <mxCell id="tG1hGK9fX6ViWs7RZ0Ur-31" style="edgeStyle=orthogonalEdgeStyle;rounded=0;orthogonalLoop=1;jettySize=auto;html=1;exitX=0;exitY=0.5;exitDx=0;exitDy=0;entryX=1;entryY=0.5;entryDx=0;entryDy=0;" edge="1" parent="WIyWlLk6GJQsqaUBKTNV-1" source="tG1hGK9fX6ViWs7RZ0Ur-22" target="tG1hGK9fX6ViWs7RZ0Ur-23">
          <mxGeometry relative="1" as="geometry" />
        </mxCell>
        <mxCell id="tG1hGK9fX6ViWs7RZ0Ur-22" value="&lt;span style=&quot;font-size: 18px;&quot;&gt;input&lt;/span&gt;&lt;div&gt;&lt;span style=&quot;font-size: 18px;&quot;&gt;utilites&lt;/span&gt;&lt;/div&gt;" style="shape=parallelogram;perimeter=parallelogramPerimeter;whiteSpace=wrap;html=1;fixedSize=1;" vertex="1" parent="WIyWlLk6GJQsqaUBKTNV-1">
          <mxGeometry x="500" y="210" width="175" height="90" as="geometry" />
        </mxCell>
        <mxCell id="tG1hGK9fX6ViWs7RZ0Ur-32" style="edgeStyle=orthogonalEdgeStyle;rounded=0;orthogonalLoop=1;jettySize=auto;html=1;exitX=0;exitY=0.5;exitDx=0;exitDy=0;entryX=1;entryY=0.5;entryDx=0;entryDy=0;" edge="1" parent="WIyWlLk6GJQsqaUBKTNV-1" source="tG1hGK9fX6ViWs7RZ0Ur-23" target="tG1hGK9fX6ViWs7RZ0Ur-5">
          <mxGeometry relative="1" as="geometry" />
        </mxCell>
        <mxCell id="tG1hGK9fX6ViWs7RZ0Ur-23" value="&lt;span style=&quot;font-size: 18px;&quot;&gt;input&lt;/span&gt;&lt;div&gt;&lt;span style=&quot;font-size: 18px;&quot;&gt;groceries&lt;/span&gt;&lt;/div&gt;" style="shape=parallelogram;perimeter=parallelogramPerimeter;whiteSpace=wrap;html=1;fixedSize=1;" vertex="1" parent="WIyWlLk6GJQsqaUBKTNV-1">
          <mxGeometry x="241.5" y="210" width="175" height="90" as="geometry" />
        </mxCell>
        <mxCell id="tG1hGK9fX6ViWs7RZ0Ur-34" style="edgeStyle=orthogonalEdgeStyle;rounded=0;orthogonalLoop=1;jettySize=auto;html=1;exitX=1;exitY=0.5;exitDx=0;exitDy=0;entryX=0;entryY=0.5;entryDx=0;entryDy=0;" edge="1" parent="WIyWlLk6GJQsqaUBKTNV-1" source="tG1hGK9fX6ViWs7RZ0Ur-24" target="tG1hGK9fX6ViWs7RZ0Ur-25">
          <mxGeometry relative="1" as="geometry" />
        </mxCell>
        <mxCell id="tG1hGK9fX6ViWs7RZ0Ur-24" value="&lt;span style=&quot;font-size: 18px;&quot;&gt;remaining =&lt;/span&gt;&lt;div&gt;&lt;span style=&quot;font-size: 18px; background-color: initial;&quot;&gt;monthlyPay - deductions&lt;/span&gt;&lt;/div&gt;" style="rounded=0;whiteSpace=wrap;html=1;" vertex="1" parent="WIyWlLk6GJQsqaUBKTNV-1">
          <mxGeometry x="10" y="400" width="170" height="90" as="geometry" />
        </mxCell>
        <mxCell id="tG1hGK9fX6ViWs7RZ0Ur-35" style="edgeStyle=orthogonalEdgeStyle;rounded=0;orthogonalLoop=1;jettySize=auto;html=1;exitX=1;exitY=0.5;exitDx=0;exitDy=0;entryX=0;entryY=0.5;entryDx=0;entryDy=0;" edge="1" parent="WIyWlLk6GJQsqaUBKTNV-1" source="tG1hGK9fX6ViWs7RZ0Ur-25" target="tG1hGK9fX6ViWs7RZ0Ur-26">
          <mxGeometry relative="1" as="geometry" />
        </mxCell>
        <mxCell id="tG1hGK9fX6ViWs7RZ0Ur-25" value="&lt;span style=&quot;font-size: 18px;&quot;&gt;output&lt;/span&gt;&lt;div&gt;&lt;span style=&quot;font-size: 18px;&quot;&gt;monthlyPay&lt;/span&gt;&lt;/div&gt;" style="shape=parallelogram;perimeter=parallelogramPerimeter;whiteSpace=wrap;html=1;fixedSize=1;" vertex="1" parent="WIyWlLk6GJQsqaUBKTNV-1">
          <mxGeometry x="241.5" y="400" width="175" height="90" as="geometry" />
        </mxCell>
        <mxCell id="tG1hGK9fX6ViWs7RZ0Ur-36" style="edgeStyle=orthogonalEdgeStyle;rounded=0;orthogonalLoop=1;jettySize=auto;html=1;exitX=0.5;exitY=1;exitDx=0;exitDy=0;entryX=0.75;entryY=0;entryDx=0;entryDy=0;" edge="1" parent="WIyWlLk6GJQsqaUBKTNV-1" source="tG1hGK9fX6ViWs7RZ0Ur-26" target="tG1hGK9fX6ViWs7RZ0Ur-27">
          <mxGeometry relative="1" as="geometry" />
        </mxCell>
        <mxCell id="tG1hGK9fX6ViWs7RZ0Ur-26" value="&lt;span style=&quot;font-size: 18px;&quot;&gt;output&lt;/span&gt;&lt;div&gt;&lt;span style=&quot;font-size: 18px;&quot;&gt;deductions&lt;/span&gt;&lt;/div&gt;" style="shape=parallelogram;perimeter=parallelogramPerimeter;whiteSpace=wrap;html=1;fixedSize=1;" vertex="1" parent="WIyWlLk6GJQsqaUBKTNV-1">
          <mxGeometry x="500" y="400" width="175" height="90" as="geometry" />
        </mxCell>
        <mxCell id="tG1hGK9fX6ViWs7RZ0Ur-37" style="edgeStyle=orthogonalEdgeStyle;rounded=0;orthogonalLoop=1;jettySize=auto;html=1;exitX=0;exitY=0.5;exitDx=0;exitDy=0;entryX=1;entryY=0.5;entryDx=0;entryDy=0;" edge="1" parent="WIyWlLk6GJQsqaUBKTNV-1" source="tG1hGK9fX6ViWs7RZ0Ur-27" target="tG1hGK9fX6ViWs7RZ0Ur-8">
          <mxGeometry relative="1" as="geometry" />
        </mxCell>
        <mxCell id="tG1hGK9fX6ViWs7RZ0Ur-27" value="&lt;span style=&quot;font-size: 18px;&quot;&gt;output&lt;/span&gt;&lt;div&gt;&lt;span style=&quot;font-size: 18px;&quot;&gt;remaining&lt;/span&gt;&lt;/div&gt;" style="shape=parallelogram;perimeter=parallelogramPerimeter;whiteSpace=wrap;html=1;fixedSize=1;" vertex="1" parent="WIyWlLk6GJQsqaUBKTNV-1">
          <mxGeometry x="440" y="522.5" width="175" height="90" as="geometry" />
        </mxCell>
      </root>
    </mxGraphModel>
  </diagram>
</mxfile>
